<!DOCTYPE svg PUBLIC "-//W3C//DTD SVG 1.1//EN" "http://www.w3.org/Graphics/SVG/1.1/DTD/svg11.dtd">
<!-- Uploaded to: SVG Repo, www.svgrepo.com, Transformed by: SVG Repo Mixer Tools -->
<svg width="800px" height="800px" viewBox="0 0 36.00 36.00" xmlns="http://www.w3.org/2000/svg" xmlns:xlink="http://www.w3.org/1999/xlink" aria-hidden="true" role="img" class="iconify iconify--twemoji" preserveAspectRatio="xMidYMid meet" fill="#ffffff" stroke="#ffffff" stroke-width="0.00036">
<g id="SVGRepo_bgCarrier" stroke-width="0"/>
<g id="SVGRepo_tracerCarrier" stroke-linecap="round" stroke-linejoin="round"/>
<g id="SVGRepo_iconCarrier">
<path fill="#ff00fffffff" d="M22.235 35.662c-.418 0-.83-.123-1.182-.361l-2.96-2.007l-2.959 2.007a2.12 2.12 0 0 1-1.73.289a2.1 2.1 0 0 1-1.351-1.113l-1.721-2.393l-3.405-.568a2.111 2.111 0 0 1-2.256-2.254l.256-3.567l-3.215-1.56a2.106 2.106 0 0 1-1.116-1.353a2.106 2.106 0 0 1 .291-1.729l1.152-2.928l-1.152-2.991a2.108 2.108 0 0 1 .825-3.08l3.215-1.561l-.254-3.564a2.106 2.106 0 0 1 .614-1.642a2.104 2.104 0 0 1 1.642-.614l3.28-.506l1.846-2.452a2.107 2.107 0 0 1 3.081-.826l2.959 2.005l2.96-2.005a2.103 2.103 0 0 1 1.727-.29a2.109 2.109 0 0 1 1.354 1.116L26 4.042l3.262.631c.048-.004.1-.004.149-.004a2.108 2.108 0 0 1 2.105 2.26l-.26 3.565l3.221 1.561c.551.267.957.761 1.113 1.351a2.107 2.107 0 0 1-.289 1.729l-.926 2.908l.926 3.011c.344.508.447 1.138.289 1.729a2.096 2.096 0 0 1-1.113 1.353l-3.221 1.56l.26 3.567a2.123 2.123 0 0 1-.612 1.642a2.119 2.119 0 0 1-1.642.612l-3.22.526l-1.908 2.435a2.095 2.095 0 0 1-1.899 1.184z"/>
<path fill="#ff00ff" d="M18.5 28.709c-3.708.041-8.167-2.875-7.792-8.37c.133-1.959.903-3.779 2.341-5.116a6.308 6.308 0 0 1 8.903.324a5.39 5.39 0 0 1 1.447 3.891a5.38 5.38 0 0 1-1.727 3.774a4.635 4.635 0 0 1-3.365 1.253a4.663 4.663 0 0 1-3.266-1.495c-.785-.844-1.059-2.045-.733-3.214c.331-1.188 1.219-2.095 2.375-2.425c.532-.151 1.123-.236 1.275.294c.152.531-.38.757-1.083 1.25c-.833.584-1.292 1.667-.368 2.733c.471.544 1.155.831 1.874.857a2.681 2.681 0 0 0 1.931-.719a3.402 3.402 0 0 0 1.09-2.383a3.406 3.406 0 0 0-.914-2.456a4.305 4.305 0 0 0-6.077-.221a5.317 5.317 0 0 0-1.704 3.724a5.315 5.315 0 0 0 1.428 3.838a6.563 6.563 0 0 0 4.6 2.104a6.537 6.537 0 0 0 4.74-1.765a8.064 8.064 0 0 0 2.585-5.649a8.064 8.064 0 0 0-2.167-5.822c-3.725-4.008-8.601-4.952-13.643-1.91c-.763.463-1.401 1.139-1.833.794c-.208-.167-.314-.481.09-.857c4.815-4.478 12.376-4.201 16.851.614c1.84 1.979 2.919 4.562 2.7 7.257c-.683 8.403-6.558 9.861-9.558 9.695z"/>
</g>
</svg>
