<?xml version="1.0" encoding="UTF-8" standalone="no"?>
<svg
   xmlns:dc="http://purl.org/dc/elements/1.1/"
   xmlns:cc="http://creativecommons.org/ns#"
   xmlns:rdf="http://www.w3.org/1999/02/22-rdf-syntax-ns#"
   xmlns:svg="http://www.w3.org/2000/svg"
   xmlns="http://www.w3.org/2000/svg"
   xmlns:sodipodi="http://sodipodi.sourceforge.net/DTD/sodipodi-0.dtd"
   xmlns:inkscape="http://www.inkscape.org/namespaces/inkscape"
   width="208.03059mm"
   height="103.4943mm"
   viewBox="0 0 208.03059 103.4943"
   version="1.1"
   id="svg1766"
   inkscape:version="1.0.2 (394de47547, 2021-03-26)"
   sodipodi:docname="polars-logo-rust.svg">
  <defs
     id="defs1760" />
  <sodipodi:namedview
     id="base"
     pagecolor="#ffffff"
     bordercolor="#666666"
     borderopacity="1.0"
     inkscape:pageopacity="0"
     inkscape:pageshadow="2"
     inkscape:zoom="0.49497475"
     inkscape:cx="194.4128"
     inkscape:cy="84.510414"
     inkscape:document-units="mm"
     inkscape:current-layer="layer1"
     inkscape:document-rotation="0"
     showgrid="false"
     showborder="false"
     inkscape:window-width="1824"
     inkscape:window-height="852"
     inkscape:window-x="0"
     inkscape:window-y="27"
     inkscape:window-maximized="1"
     fit-margin-top="0"
     fit-margin-left="0"
     fit-margin-right="0"
     fit-margin-bottom="0" />
  <metadata
     id="metadata1763">
    <rdf:RDF>
      <cc:Work
         rdf:about="">
        <dc:format>image/svg+xml</dc:format>
        <dc:type
           rdf:resource="http://purl.org/dc/dcmitype/StillImage" />
        <dc:title></dc:title>
      </cc:Work>
    </rdf:RDF>
  </metadata>
  <g
     inkscape:label="Layer 1"
     inkscape:groupmode="layer"
     id="layer1">
    <g
       id="g3808"
       inkscape:export-filename="rust.png"
       inkscape:export-xdpi="96"
       inkscape:export-ydpi="96">
      <g
         id="g3756">
        <rect
           style="fill:#cd792c;fill-opacity:1;fill-rule:evenodd;stroke:none;stroke-width:0.26049;stroke-opacity:1"
           id="rect1700-7-62"
           width="7.1437497"
           height="20.137983"
           x="-2.8423553e-14"
           y="77.754295"
           ry="1.1696537" />
        <rect
           style="fill:#cd792c;fill-opacity:1;fill-rule:evenodd;stroke:none;stroke-width:0.260575;stroke-opacity:1"
           id="rect1700-6-1"
           width="7.1437497"
           height="25.081575"
           x="10.585325"
           y="54.365406"
           ry="1.6912071" />
        <rect
           style="fill:#cd792c;fill-opacity:1;fill-rule:evenodd;stroke:none;stroke-width:0.256824;stroke-opacity:1"
           id="rect1700-7-3-8"
           width="7.1437497"
           height="21.183582"
           x="10.585325"
           y="82.310715"
           ry="1.1696554" />
        <rect
           style="fill:#cd792c;fill-opacity:1;fill-rule:evenodd;stroke:none;stroke-width:0.260575;stroke-opacity:1"
           id="rect1700-3-9"
           width="7.1437497"
           height="37.627625"
           x="21.170637"
           y="30.755001"
           ry="1.1696548" />
        <rect
           style="fill:#cd792c;fill-opacity:1;fill-rule:evenodd;stroke:none;stroke-width:0.2663;stroke-opacity:1"
           id="rect1700-7-5-2"
           width="7.1437497"
           height="13.283637"
           x="21.170637"
           y="71.698196"
           ry="1.1696537" />
        <rect
           style="fill:#cd792c;fill-opacity:1;fill-rule:evenodd;stroke:none;stroke-width:0.260695;stroke-opacity:1"
           id="rect1700-7-56-02"
           width="7.1437497"
           height="9.5921707"
           x="21.170637"
           y="93.90213"
           ry="1.6912165" />
        <path
           id="rect1700-75"
           style="fill:#cd792c;fill-opacity:1;fill-rule:evenodd;stroke:none;stroke-width:0.260575;stroke-opacity:1"
           d="m 32.925617,14.018857 h 4.804436 c 0.64799,0 1.169657,0.521667 1.169657,1.169657 v 24.958545 c 0,0.64799 -0.521667,1.169657 -1.169657,1.169657 h -4.804436 c -0.64799,0 -1.169657,-0.521667 -1.169657,-1.169657 V 15.188514 c 0,-0.64799 0.521667,-1.169657 1.169657,-1.169657 z" />
        <rect
           style="fill:#cd792c;fill-opacity:1;fill-rule:evenodd;stroke:none;stroke-width:0.260575;stroke-opacity:1"
           id="rect1700-9-9"
           width="7.1437497"
           height="36.164299"
           x="31.75596"
           y="44.358124"
           ry="1.1671697" />
        <path
           id="rect1700-7-56-2-2"
           style="fill:#cd792c;fill-opacity:1;fill-rule:evenodd;stroke:none;stroke-width:1.02196;stroke-opacity:1"
           d="M 164.44531 33.519531 C 161.99622 33.519531 160.02539 35.490359 160.02539 37.939453 L 160.02539 100.84375 C 160.02539 103.29284 161.99622 105.26562 164.44531 105.26562 L 180.32031 105.26562 L 186.46484 102.96289 C 186.81097 102.33181 187.02539 101.61708 187.02539 100.84375 L 187.02539 100.16211 L 178.63086 88.478516 A 4.0701264 4.0701264 0 0 1 181.28125 82.09375 L 187.02539 81.15625 L 187.02539 37.939453 C 187.02539 35.490359 185.05261 33.519531 182.60352 33.519531 L 164.44531 33.519531 z "
           transform="scale(0.26458333)" />
        <path
           id="rect1700-7-56-7-8"
           style="fill:#cd792c;fill-opacity:1;fill-rule:evenodd;stroke:none;stroke-width:1.02232;stroke-opacity:1"
           d="M 164.45508 116.33008 C 162.00599 116.33008 160.03516 118.30091 160.03516 120.75 L 160.03516 211.25977 C 160.03516 213.70886 162.00599 215.68164 164.45508 215.68164 L 182.61328 215.68164 C 185.06237 215.68164 187.03516 213.70886 187.03516 211.25977 L 187.03516 196.41992 L 181.28125 195.48047 A 4.0701264 4.0701264 0 0 1 178.63086 189.08789 L 187.03516 177.39844 L 187.03516 174.82422 L 172.69531 169.45117 A 4.0701264 4.0701264 0 0 1 171.34375 162.66797 L 183.6875 151.13672 L 169.32227 142.24805 A 4.0701264 4.0701264 0 0 1 169.32227 135.32422 L 183.67969 126.4375 L 172.86719 116.33008 L 164.45508 116.33008 z M 184.31445 135.61914 L 179.19922 138.78711 L 184.31445 141.95312 C 184.28698 140.87504 183.99805 139.87177 183.99805 138.78711 C 183.99805 137.70276 184.28686 136.69692 184.31445 135.61914 z M 186.13867 159.98047 L 181.70117 164.12891 L 187.03516 166.12891 L 187.03516 165.24414 C 186.68978 163.50402 186.44127 161.74191 186.13867 159.98047 z "
           transform="scale(0.26458333)" />
        <rect
           style="fill:#cd792c;fill-opacity:1;fill-rule:evenodd;stroke:none;stroke-width:0.270489;stroke-opacity:1"
           id="rect1700-7-56-0-97"
           width="7.1437497"
           height="23.854219"
           x="42.342514"
           y="60.513779"
           ry="1.1696548" />
        <path
           id="rect1700-7-56-3-612"
           style="fill:#cd792c;fill-opacity:1;fill-rule:evenodd;stroke:none;stroke-width:0.985304;stroke-opacity:1"
           d="M 206.42969 17.744141 C 202.88852 17.744141 200.03711 20.593598 200.03711 24.134766 L 200.03711 58.40625 L 211.6875 58.818359 L 207.81055 42.365234 A 4.0701264 4.0701264 0 0 1 212.70508 37.470703 L 227.03711 40.84375 L 227.03711 24.134766 C 227.03711 20.593598 224.1857 17.744141 220.64453 17.744141 L 206.42969 17.744141 z M 217.24609 46.896484 L 218.63281 52.787109 C 220.10137 51.242148 221.5839 49.753677 223.12891 48.285156 L 217.24609 46.896484 z M 201.08594 66.591797 L 203.60352 72.113281 C 204.74109 70.317711 205.84149 68.531069 207.06641 66.798828 L 201.08594 66.591797 z "
           transform="scale(0.26458333)" />
        <path
           id="rect1700-7-56-3-6-9"
           style="fill:#cd792c;fill-opacity:1;fill-rule:evenodd;stroke:none;stroke-width:0.985304;stroke-opacity:1"
           d="M 200.03711 195.24219 L 200.03711 195.47656 C 200.03711 197.84353 201.31461 199.89508 203.2168 201 A 122.83465 122.83465 0 0 1 200.03711 195.24219 z "
           transform="scale(0.26458333)" />
        <path
           id="rect1700-7-56-3-0-3"
           style="fill:#cd792c;fill-opacity:1;fill-rule:evenodd;stroke:none;stroke-width:0.985304;stroke-opacity:1"
           d="M 211.6875 218.74805 L 200.03711 219.16016 L 200.03711 339.41797 C 200.03711 342.95914 202.88852 345.81055 206.42969 345.81055 L 220.62695 345.81055 C 224.16812 345.81055 227.01953 342.95914 227.01953 339.41797 L 227.01953 236.73438 L 212.70508 240.10352 A 4.0701264 4.0701264 0 0 1 207.81055 235.20898 L 211.6875 218.74805 z M 218.63281 224.78516 L 217.24609 230.66992 L 223.12891 229.28125 C 221.58512 227.81379 220.10027 226.32894 218.63281 224.78516 z "
           transform="scale(0.26458333)" />
        <path
           id="rect1700-7-56-3-62-9"
           style="fill:#cd792c;fill-opacity:1;fill-rule:evenodd;stroke:none;stroke-width:0.985304;stroke-opacity:1"
           d="M 246.4375 1.9746094 C 242.89633 1.9746094 240.04492 4.8260199 240.04492 8.3671875 L 240.04492 23.220703 L 249.71094 27.630859 L 252.43555 10.939453 A 4.0701264 4.0701264 0 0 1 258.82812 8.2890625 L 267.04492 14.193359 L 267.04492 8.3671875 C 267.04492 4.8260199 264.19351 1.9746094 260.65234 1.9746094 L 246.4375 1.9746094 z M 259.41016 18.734375 L 258.45898 24.574219 C 260.38432 23.717404 262.37462 23.046089 264.34961 22.285156 L 259.41016 18.734375 z M 240.06055 32.175781 C 240.10265 32.979919 240.29201 33.741353 240.60352 34.4375 C 241.21945 34.046376 241.83486 33.656673 242.45508 33.263672 L 240.06055 32.175781 z "
           transform="scale(0.26458333)" />
        <path
           id="rect1700-7-56-3-8-7"
           style="fill:#cd792c;fill-opacity:1;fill-rule:evenodd;stroke:none;stroke-width:0.985304;stroke-opacity:1"
           d="M 246.4375 256.31836 C 242.89633 256.31836 240.04492 259.16782 240.04492 262.70898 L 240.04492 311.80664 C 240.04492 315.34781 242.89633 318.19727 246.4375 318.19727 L 260.65234 318.19727 C 264.19351 318.19727 267.04492 315.34781 267.04492 311.80664 L 267.04492 263.375 L 258.82812 269.2832 A 4.0701264 4.0701264 0 0 1 252.43555 266.63477 L 250.75195 256.31836 L 246.4375 256.31836 z M 259 256.31836 L 259.41016 258.83789 L 262.5293 256.5957 C 261.93648 256.41516 261.30574 256.31836 260.65234 256.31836 L 259 256.31836 z "
           transform="scale(0.26458333)" />
        <rect
           style="fill:#cd792c;fill-opacity:1;fill-rule:evenodd;stroke:none;stroke-width:0.260695;stroke-opacity:1"
           id="rect1700-7-56-3-7-8"
           width="7.143754"
           height="11.678391"
           x="63.511871"
           y="87.642601"
           ry="1.6912165" />
        <rect
           style="fill:#cd792c;fill-opacity:1;fill-rule:evenodd;stroke:none;stroke-width:0.260695;stroke-opacity:1"
           id="rect1700-7-56-3-9-5"
           width="7.1437497"
           height="18.463577"
           x="74.097153"
           y="85.030724"
           ry="1.6912165" />
        <path
           id="rect1700-7-56-3-02-0"
           style="fill:#cd792c;fill-opacity:1;fill-rule:evenodd;stroke:none;stroke-width:0.985304;stroke-opacity:1"
           d="M 281.71094 260.68359 L 283.78516 266.21289 L 287.93359 261.77734 C 285.84811 261.41911 283.75991 261.14385 281.71094 260.68359 z M 305.96094 263.59961 L 307.05273 265.36328 L 307.05273 263.70312 C 306.69293 263.65401 306.33198 263.60911 305.96094 263.59961 z M 296.77734 264.22656 L 285.24805 276.57031 A 4.0701264 4.0701264 0 0 1 285.15234 276.66797 C 285.56916 276.7528 286.00071 276.79688 286.44336 276.79688 L 300.66016 276.79688 C 301.88045 276.79688 303.01441 276.45173 303.98242 275.86328 L 296.77734 264.22656 z "
           transform="scale(0.26458333)" />
        <path
           id="rect1700-7-56-3-3-36"
           style="fill:#cd792c;fill-opacity:1;fill-rule:evenodd;stroke:none;stroke-width:0.985304;stroke-opacity:1"
           d="M 286.44336 0 C 285.73609 1.1826187e-16 285.05872 0.11785793 284.42383 0.328125 A 4.0701264 4.0701264 0 0 1 285.24805 1.0039062 L 296.77734 13.339844 L 304.32422 1.1542969 C 303.28729 0.42915003 302.02681 -2.2851851e-16 300.66016 0 L 286.44336 0 z M 283.78516 11.353516 L 281.71094 16.882812 C 283.75989 16.422568 285.84814 16.147286 287.93359 15.789062 L 283.78516 11.353516 z M 307.05273 12.199219 L 305.95312 13.974609 C 306.32676 13.96507 306.69043 13.920513 307.05273 13.871094 L 307.05273 12.199219 z "
           transform="scale(0.26458333)" />
        <rect
           style="fill:#cd792c;fill-opacity:1;fill-rule:evenodd;stroke:none;stroke-width:0.260695;stroke-opacity:1"
           id="rect1700-7-56-3-2-0"
           width="7.1437497"
           height="10.635276"
           x="84.682426"
           y="92.859024"
           ry="1.6912165" />
        <path
           id="rect1700-7-56-3-75-6"
           style="fill:#cd792c;fill-opacity:1;fill-rule:evenodd;stroke:none;stroke-width:0.985304;stroke-opacity:1"
           d="M 326.45117 1.9726562 C 322.91 1.9726563 320.05859 4.8240668 320.05859 8.3652344 L 320.05859 11.042969 L 321.47656 13.332031 L 332.10156 1.9726562 L 326.45117 1.9726562 z M 339.625 1.9726562 A 4.0701264 4.0701264 0 0 1 339.79102 2.3554688 L 345.71289 18.152344 L 347.05859 17.185547 L 347.05859 8.3652344 C 347.05859 4.8240668 344.20914 1.9726563 340.66797 1.9726562 L 339.625 1.9726562 z M 334.47656 11.353516 L 330.32812 15.789062 C 332.41084 16.14684 334.49666 16.42329 336.54297 16.882812 L 334.47656 11.353516 z "
           transform="scale(0.26458333)" />
        <path
           id="rect1700-7-56-3-92-3"
           style="fill:#cd792c;fill-opacity:1;fill-rule:evenodd;stroke:none;stroke-width:0.985304;stroke-opacity:1"
           d="M 345.71289 259.42188 L 339.79102 275.21875 A 4.0701264 4.0701264 0 0 1 338.71875 276.80078 L 340.66797 276.80078 C 344.20914 276.80078 347.05859 273.95132 347.05859 270.41016 L 347.05859 260.38867 L 345.71289 259.42188 z M 336.54297 260.68359 C 334.49663 261.14313 332.41087 261.41957 330.32812 261.77734 L 334.47656 266.21289 L 336.54297 260.68359 z M 321.47656 264.23438 L 320.05859 266.52539 L 320.05859 270.41016 C 320.05859 273.95132 322.91 276.80078 326.45117 276.80078 L 333.24219 276.80078 A 4.0701264 4.0701264 0 0 1 333.00781 276.57031 L 321.47656 264.23438 z "
           transform="scale(0.26458333)" />
        <path
           id="rect1700-7-56-3-28-06"
           style="fill:#cd792c;fill-opacity:1;fill-rule:evenodd;stroke:none;stroke-width:0.985304;stroke-opacity:1"
           d="M 366.45898 9.8574219 C 366.141 9.8574219 365.83068 9.887222 365.52539 9.9316406 A 4.0701264 4.0701264 0 0 1 365.82812 10.939453 L 368.55273 27.623047 L 383.93555 20.609375 A 4.0701264 4.0701264 0 0 1 387.06641 20.507812 L 387.06641 16.25 C 387.06641 12.708832 384.21695 9.8574219 380.67578 9.8574219 L 366.45898 9.8574219 z M 381.32227 30.746094 L 375.80859 33.263672 C 377.60127 34.399598 379.38568 35.49381 381.11523 36.716797 L 381.32227 30.746094 z "
           transform="scale(0.26458333)" />
        <path
           id="rect1700-7-56-3-97-1"
           style="fill:#cd792c;fill-opacity:1;fill-rule:evenodd;stroke:none;stroke-width:0.985304;stroke-opacity:1"
           d="M 381.11523 240.84961 C 379.383 242.07452 377.59636 243.17297 375.80078 244.31055 L 381.32227 246.82812 L 381.11523 240.84961 z M 368.55273 249.94336 L 365.82812 266.63477 A 4.0701264 4.0701264 0 0 1 360.06641 269.65625 L 360.06641 270.39258 C 360.06641 273.93375 362.91782 276.7832 366.45898 276.7832 L 380.67578 276.7832 C 384.21695 276.7832 387.06641 273.93375 387.06641 270.39258 L 387.06641 257.05859 A 4.0701264 4.0701264 0 0 1 383.93555 256.95703 L 368.55273 249.94336 z "
           transform="scale(0.26458333)" />
        <path
           id="rect1700-7-56-3-36-5"
           style="fill:#cd792c;fill-opacity:1;fill-rule:evenodd;stroke:none;stroke-width:0.985304;stroke-opacity:1"
           d="M 406.45898 13.802734 C 402.91782 13.802734 400.06641 16.654146 400.06641 20.195312 L 400.06641 38.761719 L 405.55078 37.470703 A 4.0701264 4.0701264 0 0 1 410.44336 42.365234 L 406.56836 58.818359 L 423.45898 58.220703 A 4.0701264 4.0701264 0 0 1 427.06641 60.154297 L 427.06641 20.195312 C 427.06641 16.654146 424.21695 13.802734 420.67578 13.802734 L 406.45898 13.802734 z M 401.01758 46.896484 L 400.06641 47.121094 L 400.06641 50.931641 L 401.01758 46.896484 z M 427.06641 64.501953 L 420.29102 79.369141 L 427.06641 80.476562 L 427.06641 64.501953 z M 417.16797 66.591797 L 411.19727 66.798828 C 412.42149 68.530124 413.51535 70.318724 414.65234 72.113281 L 417.16797 66.591797 z M 423.33984 88.117188 C 424.19693 90.043371 424.8756 92.031755 425.63672 94.007812 L 427.06641 92.015625 L 427.06641 88.724609 L 423.33984 88.117188 z "
           transform="scale(0.26458333)" />
        <path
           id="rect1700-7-56-3-29-4"
           style="fill:#cd792c;fill-opacity:1;fill-rule:evenodd;stroke:none;stroke-width:0.985304;stroke-opacity:1"
           d="M 425.62891 183.56445 C 424.86801 185.53925 424.19655 187.52992 423.33984 189.45508 L 427.06641 188.84766 L 427.06641 185.56445 L 425.62891 183.56445 z M 427.06641 197.09766 L 420.29102 198.20312 L 427.06641 213.07227 L 427.06641 197.09766 z M 414.65234 205.45898 C 413.51652 207.25164 412.42013 209.03804 411.19727 210.76758 L 417.16797 210.98242 L 414.65234 205.45898 z M 427.06641 217.40625 A 4.0701264 4.0701264 0 0 1 423.45898 219.3457 L 406.56836 218.74805 L 410.44336 235.20898 A 4.0701264 4.0701264 0 0 1 405.55078 240.10352 L 400.38477 238.88672 C 401.21798 241.44739 403.61351 243.29102 406.45898 243.29102 L 420.67578 243.29102 C 424.21695 243.29102 427.06641 240.43961 427.06641 236.89844 L 427.06641 217.40625 z M 400.06641 226.63867 L 400.06641 230.44531 L 401.01758 230.66992 L 400.06641 226.63867 z "
           transform="scale(0.26458333)" />
        <rect
           style="fill:#cd792c;fill-opacity:1;fill-rule:evenodd;stroke:none;stroke-width:0.260695;stroke-opacity:1"
           id="rect1700-7-56-3-31-7"
           width="7.1437497"
           height="13.76461"
           x="105.85114"
           y="67.81572"
           ry="1.6912165" />
        <path
           id="rect1700-7-56-3-1-5"
           style="fill:#cd792c;fill-opacity:1;fill-rule:evenodd;stroke:none;stroke-width:7.59685;stroke-miterlimit:4;stroke-dasharray:none;stroke-opacity:1"
           d="M 446.22266 19.724609 C 442.68149 19.724609 439.83008 22.57602 439.83008 26.117188 L 439.83008 84.060547 A 4.0701264 4.0701264 0 0 1 439.83008 88.162109 L 439.83008 105.97656 L 445.56055 108.12305 A 4.0701264 4.0701264 0 0 1 446.91016 114.90625 L 439.83008 121.5293 L 439.83008 129.6875 L 448.93359 135.32422 A 4.0701264 4.0701264 0 0 1 448.93359 142.24805 L 439.83008 147.88477 L 439.83008 156.04883 L 446.91016 162.66797 A 4.0701264 4.0701264 0 0 1 445.56055 169.45117 L 439.83008 171.59961 L 439.83008 187.60156 C 439.83008 191.14273 442.68149 193.99219 446.22266 193.99219 L 460.43945 193.99219 C 463.98062 193.99219 466.83008 191.14273 466.83008 187.60156 L 466.83008 26.117188 C 466.83008 22.57602 463.98062 19.724609 460.43945 19.724609 L 446.22266 19.724609 z "
           transform="scale(0.26458333)" />
        <rect
           style="fill:#cd792c;fill-opacity:1;fill-rule:evenodd;stroke:none;stroke-width:0.260695;stroke-opacity:1"
           id="rect1700-7-56-3-94-69"
           width="7.1437497"
           height="37.239548"
           x="116.37191"
           y="54.77734"
           ry="1.6912165" />
        <rect
           style="fill:#cd792c;fill-opacity:1;fill-rule:evenodd;stroke:none;stroke-width:0.260695;stroke-opacity:1"
           id="rect1700-7-56-3-78-7"
           width="7.1437497"
           height="21.590418"
           x="126.88552"
           y="3.6528189"
           ry="1.6912165" />
        <rect
           style="fill:#cd792c;fill-opacity:1;fill-rule:evenodd;stroke:none;stroke-width:0.260695;stroke-opacity:1"
           id="rect1700-7-56-3-4-4"
           width="7.1437497"
           height="56.544529"
           x="126.88552"
           y="28.692696"
           ry="1.6912165" />
        <rect
           style="fill:#cd792c;fill-opacity:1;fill-rule:evenodd;stroke:none;stroke-width:0.260695;stroke-opacity:1"
           id="rect1700-7-56-3-5-5"
           width="7.1437497"
           height="13.243057"
           x="126.88552"
           y="88.685135"
           ry="1.6912165" />
        <rect
           style="fill:#cd792c;fill-opacity:1;fill-rule:evenodd;stroke:none;stroke-width:0.260695;stroke-opacity:1"
           id="rect1700-7-56-3-03-5"
           width="7.1437497"
           height="17.939522"
           x="137.46886"
           y="85.554779"
           ry="1.6912165" />
        <rect
           style="fill:#cd792c;fill-opacity:1;fill-rule:evenodd;stroke:none;stroke-width:0.260695;stroke-opacity:1"
           id="rect1700-7-56-3-610-4"
           width="7.1437497"
           height="13.245543"
           x="137.46886"
           y="41.212944"
           ry="1.6912165" />
        <rect
           style="fill:#cd792c;fill-opacity:1;fill-rule:evenodd;stroke:none;stroke-width:0.260695;stroke-opacity:1"
           id="rect1700-7-56-3-63-7"
           width="7.1437497"
           height="34.631771"
           x="137.46886"
           y="3.1306403"
           ry="1.6912165" />
        <rect
           style="fill:#cd792c;fill-opacity:1;fill-rule:evenodd;stroke:none;stroke-width:0.260695;stroke-opacity:1"
           id="rect1700-7-56-3-20-4"
           width="7.1437497"
           height="42.97913"
           x="148.19659"
           y="5.7404408"
           ry="1.6912165" />
        <rect
           style="fill:#cd792c;fill-opacity:1;fill-rule:evenodd;stroke:none;stroke-width:0.260695;stroke-opacity:1"
           id="rect1700-7-56-3-615-3"
           width="7.1437497"
           height="9.5921707"
           x="148.19659"
           y="93.90213"
           ry="1.6912165" />
        <rect
           style="fill:#cd792c;fill-opacity:1;fill-rule:evenodd;stroke:none;stroke-width:0.260695;stroke-opacity:1"
           id="rect1700-7-56-3-54-78"
           width="7.1437497"
           height="13.245537"
           x="158.63243"
           y="8.8707514"
           ry="1.6912165" />
        <rect
           style="fill:#cd792c;fill-opacity:1;fill-rule:evenodd;stroke:none;stroke-width:0.260695;stroke-opacity:1"
           id="rect1700-7-56-3-76-6"
           width="7.1437497"
           height="22.111969"
           x="158.63243"
           y="25.561792"
           ry="1.6912165" />
        <rect
           style="fill:#cd792c;fill-opacity:1;fill-rule:evenodd;stroke:none;stroke-width:0.260695;stroke-opacity:1"
           id="rect1700-7-56-3-56-8"
           width="7.1437497"
           height="9.5921707"
           x="169.35115"
           y="11.475341"
           ry="1.6912165" />
        <rect
           style="fill:#cd792c;fill-opacity:1;fill-rule:evenodd;stroke:none;stroke-width:0.260695;stroke-opacity:1"
           id="rect1700-7-56-3-93-4"
           width="7.1437497"
           height="9.0706158"
           x="169.35115"
           y="23.996138"
           ry="1.6912165" />
        <rect
           style="fill:#cd792c;fill-opacity:1;fill-rule:evenodd;stroke:none;stroke-width:0.260695;stroke-opacity:1"
           id="rect1700-7-56-3-74-3"
           width="7.1437497"
           height="12.7215"
           x="169.35115"
           y="35.993793"
           ry="1.6912165" />
        <rect
           style="fill:#cd792c;fill-opacity:1;fill-rule:evenodd;stroke:none;stroke-width:0.260695;stroke-opacity:1"
           id="rect1700-7-56-3-52-1"
           width="7.1437497"
           height="35.674881"
           x="179.93449"
           y="14.607332"
           ry="1.6912165" />
        <rect
           style="fill:#cd792c;fill-opacity:1;fill-rule:evenodd;stroke:none;stroke-width:0.260695;stroke-opacity:1"
           id="rect1700-7-56-3-547-4"
           width="7.1437497"
           height="25.241301"
           x="190.45207"
           y="23.995552"
           ry="1.6912165" />
        <rect
           style="fill:#cd792c;fill-opacity:1;fill-rule:evenodd;stroke:none;stroke-width:0.260695;stroke-opacity:1"
           id="rect1700-7-56-3-44-9"
           width="7.1437497"
           height="9.5921707"
           x="200.88684"
           y="35.99474"
           ry="1.6912165" />
      </g>
      <g
         id="g4788"
         transform="matrix(0.66985819,0,0,0.66985819,34.196577,-10.806437)"
         style="fill:#cd792c;fill-opacity:1">
        <path
           d="M 71.05,23.68 C 44.99,23.68 23.78,44.9 23.78,70.95 23.78,97 45,118.22 71.05,118.22 97.1,118.22 118.32,97 118.32,70.95 118.32,44.9 97.1,23.68 71.05,23.68 Z m -0.07,4.2 a 3.1,3.11 0 0 1 3.02,3.11 3.11,3.11 0 0 1 -6.22,0 3.11,3.11 0 0 1 3.2,-3.11 z M 78.1,33 a 38.27,38.27 0 0 1 26.2,18.66 l -3.67,8.28 c -0.63,1.43 0.02,3.11 1.44,3.75 l 7.06,3.13 a 38.27,38.27 0 0 1 0.08,6.64 h -3.93 c -0.39,0 -0.55,0.26 -0.55,0.64 v 1.8 c 0,4.24 -2.39,5.17 -4.49,5.4 -2,0.23 -4.21,-0.84 -4.49,-2.06 -1.18,-6.63 -3.14,-8.04 -6.24,-10.49 3.85,-2.44 7.85,-6.05 7.85,-10.87 0,-5.21 -3.57,-8.49 -6,-10.1 -3.42,-2.25 -7.2,-2.7 -8.22,-2.7 H 42.54 A 38.27,38.27 0 0 1 63.95,33 l 4.79,5.02 c 1.08,1.13 2.87,1.18 4,0.09 z M 33.9,56.02 a 3.11,3.11 0 0 1 3.02,3.11 3.11,3.11 0 0 1 -6.22,0 3.11,3.11 0 0 1 3.2,-3.11 z m 74.15,0.14 a 3.11,3.11 0 0 1 3.02,3.11 3.11,3.11 0 0 1 -6.22,0 3.11,3.11 0 0 1 3.2,-3.11 z m -68.29,0.5 h 5.42 V 81.1 H 34.24 A 38.27,38.27 0 0 1 33,66.49 l 6.7,-2.98 c 1.43,-0.64 2.08,-2.31 1.44,-3.74 z m 22.62,0.26 h 12.91 c 0.67,0 4.71,0.77 4.71,3.8 0,2.51 -3.1,3.41 -5.65,3.41 H 62.37 Z m 0,17.56 h 9.89 c 0.9,0 4.83,0.26 6.08,5.28 0.39,1.54 1.26,6.56 1.85,8.17 0.59,1.8 2.98,5.4 5.53,5.4 h 16.14 a 38.27,38.27 0 0 1 -3.54,4.1 l -6.57,-1.41 c -1.53,-0.33 -3.04,0.65 -3.37,2.18 l -1.56,7.28 A 38.27,38.27 0 0 1 54.92,105.33 L 53.36,98.05 C 53.03,96.52 51.53,95.54 50,95.87 l -6.43,1.38 a 38.27,38.27 0 0 1 -3.32,-3.92 h 31.27 c 0.35,0 0.59,-0.06 0.59,-0.39 V 81.88 c 0,-0.32 -0.24,-0.39 -0.59,-0.39 H 62.37 Z M 47.95,99.81 a 3.11,3.11 0 0 1 3.02,3.11 3.11,3.11 0 0 1 -6.22,0 3.11,3.11 0 0 1 3.2,-3.11 z M 94,99.95 a 3.11,3.11 0 0 1 3.02,3.11 3.11,3.11 0 0 1 -6.22,0 3.11,3.11 0 0 1 3.2,-3.11 z"
           id="path4730"
           style="fill:#cd792c;fill-opacity:1" />
        <path
           d="M 115.68,70.95 A 44.63,44.63 0 0 1 71.05,115.58 44.63,44.63 0 0 1 26.42,70.95 44.63,44.63 0 0 1 71.05,26.32 44.63,44.63 0 0 1 115.68,70.95 Z m -0.84,-4.31 6.96,4.31 -6.96,4.31 5.98,5.59 -7.66,2.87 4.78,6.65 -8.09,1.32 3.4,7.46 -8.19,-0.29 1.88,7.98 -7.98,-1.88 0.29,8.19 -7.46,-3.4 -1.32,8.09 -6.65,-4.78 -2.87,7.66 -5.59,-5.98 -4.31,6.96 -4.31,-6.96 -5.59,5.98 -2.87,-7.66 -6.65,4.78 -1.32,-8.09 -7.46,3.4 0.29,-8.19 -7.98,1.88 1.88,-7.98 -8.19,0.29 3.4,-7.46 -8.09,-1.32 4.78,-6.65 -7.66,-2.87 5.98,-5.59 -6.96,-4.31 6.96,-4.31 -5.98,-5.59 7.66,-2.87 -4.78,-6.65 8.09,-1.32 -3.4,-7.46 8.19,0.29 -1.88,-7.98 7.98,1.88 -0.29,-8.19 7.46,3.4 1.32,-8.09 6.65,4.78 2.87,-7.66 5.59,5.98 4.31,-6.96 4.31,6.96 5.59,-5.98 2.87,7.66 6.65,-4.78 1.32,8.09 7.46,-3.4 -0.29,8.19 7.98,-1.88 -1.88,7.98 8.19,-0.29 -3.4,7.46 8.09,1.32 -4.78,6.65 7.66,2.87 z"
           fill-rule="evenodd"
           stroke="#000000"
           stroke-linecap="round"
           stroke-linejoin="round"
           stroke-width="3"
           id="path4732"
           style="fill:#cd792c;fill-opacity:1;stroke:#cd792c;stroke-width:3.00064;stroke-miterlimit:4;stroke-dasharray:none;stroke-opacity:1" />
      </g>
    </g>
  </g>
</svg>
